<?xml version="1.0" standalone="no"?>
<!DOCTYPE svg PUBLIC "-//W3C//DTD SVG 20010904//EN"
 "http://www.w3.org/TR/2001/REC-SVG-20010904/DTD/svg10.dtd">
<svg version="1.0" xmlns="http://www.w3.org/2000/svg"
 width="135.000000pt" height="73.000000pt" viewBox="0 0 135.000000 73.000000"
 preserveAspectRatio="xMidYMid meet">
<metadata>
Created by potrace 1.15, written by Peter Selinger 2001-2017
</metadata>
<g transform="translate(0.000000,73.000000) scale(0.100000,-0.100000)"
fill="#000000" stroke="none">
<path d="M371 704 c-28 -24 -44 -53 -21 -39 13 8 13 -5 0 -25 -8 -12 -10 -12
-10 -1 0 8 -3 12 -6 8 -6 -6 37 -99 59 -128 15 -20 55 -30 64 -17 4 7 1 8 -7
3 -9 -5 -11 -4 -6 3 4 7 14 12 22 12 8 0 14 5 14 11 0 5 -5 7 -12 3 -7 -4 -8
-3 -4 5 4 6 11 9 16 6 5 -3 15 9 24 26 14 29 14 30 -1 18 -15 -13 -15 -12 -5
8 41 76 -43 145 -118 97 l-25 -16 24 21 c26 23 79 28 101 9 12 -11 12 -10 1 5
-20 26 -74 22 -110 -9z"/>
<path d="M676 559 c17 -5 39 -19 50 -31 l19 -22 -29 22 c-16 12 -40 22 -53 22
-34 0 -80 -26 -93 -53 -10 -20 -10 -20 3 -5 12 16 14 13 12 -20 -1 -23 5 -42
14 -50 9 -8 10 -11 4 -7 -7 3 -13 1 -13 -4 0 -6 6 -11 14 -11 8 0 23 -13 33
-30 9 -16 21 -30 26 -30 4 0 5 -5 1 -12 -19 -31 19 8 46 47 31 45 41 73 14 39
-14 -18 -14 -18 -3 6 7 14 16 39 20 55 l8 30 -2 -32 c-2 -18 0 -30 5 -27 35
22 -35 125 -83 123 -21 -1 -19 -2 7 -10z"/>
<path d="M869 353 c-1 -5 -1 -11 0 -15 0 -5 -3 -8 -8 -8 -5 0 -12 -25 -16 -55
-3 -30 -9 -55 -13 -55 -4 0 -8 -26 -10 -58 -1 -31 -7 -73 -12 -92 -8 -29 -8
-25 -4 25 2 33 0 67 -6 75 -7 11 -10 -7 -10 -61 0 -81 4 -87 53 -90 17 -1 15
-3 -8 -9 l-30 -9 30 2 c17 1 31 8 31 15 1 6 2 19 3 27 0 8 4 14 9 14 24 -4 33
4 12 11 -24 8 -23 8 8 9 20 1 31 -3 27 -9 -3 -6 -1 -10 4 -10 6 0 11 -9 11
-20 0 -16 7 -20 30 -20 37 0 37 1 7 172 -13 70 -19 124 -15 122 4 -3 8 -1 8 5
0 6 -22 13 -50 17 -27 4 -47 10 -44 15 3 5 3 9 0 9 -3 0 -7 -3 -7 -7z"/>
<path d="M156 339 c4 -7 -4 -10 -22 -9 -16 1 -48 2 -71 1 l-43 -1 0 -146 c0
-94 -4 -143 -10 -139 -6 3 -10 2 -10 -4 0 -6 15 -12 33 -15 58 -9 63 -6 59 36
-3 22 0 38 6 38 13 0 27 -38 23 -63 -2 -15 4 -18 42 -16 l43 3 -17 35 c-28 60
-31 77 -14 91 14 11 17 10 23 -11 5 -18 8 -11 12 31 7 72 -3 112 -11 45 l-6
-50 -1 64 c-2 45 -7 71 -19 85 -17 20 -17 20 2 6 20 -15 20 -14 1 8 -20 23
-32 30 -20 11z"/>
<path d="M396 332 c-5 -8 -9 -101 -5 -117 1 -5 5 19 9 55 l7 65 1 -81 c1 -45
5 -116 8 -158 l7 -76 31 2 31 2 -3 158 -3 158 -39 0 c-21 0 -41 -3 -44 -8z"/>
<path d="M492 205 c-1 -93 2 -135 8 -125 8 12 10 11 10 -7 0 -36 1 -37 17 -55
11 -12 31 -16 79 -16 36 0 63 3 60 6 -3 2 -32 4 -65 4 -45 -1 -63 3 -73 16
-11 15 -11 15 2 5 8 -6 43 -11 76 -11 l62 0 7 90 c6 79 4 92 -12 110 -10 11
-17 23 -15 26 2 4 -2 8 -10 10 -9 2 -9 1 1 -7 11 -7 3 -8 -26 -4 -22 3 -51 0
-64 -6 -23 -12 -23 -11 -5 3 11 9 15 16 9 16 -6 0 -16 -7 -23 -15 -22 -26 -29
-17 -33 43 -2 31 -4 -6 -5 -83z"/>
<path d="M1038 333 c-15 -4 -17 -23 -20 -157 l-3 -154 44 2 c28 1 46 6 49 15
3 8 0 11 -7 7 -8 -5 -11 32 -11 137 0 123 -2 146 -16 151 -9 3 -16 5 -17 5 -1
-1 -10 -3 -19 -6z"/>
<path d="M725 287 c-10 -8 -15 -19 -11 -25 4 -7 3 -12 -3 -12 -5 0 -12 8 -14
18 -4 16 -5 16 -6 -1 0 -10 7 -21 17 -24 14 -6 13 -8 -8 -13 l-24 -6 22 -22
c19 -19 22 -33 22 -102 l0 -80 30 0 30 0 0 79 c0 71 3 83 25 107 14 15 24 34
24 43 -1 13 -2 13 -6 -1 -3 -10 -14 -18 -26 -18 -18 0 -19 2 -7 10 10 6 11 10
3 10 -7 0 -13 9 -13 19 0 10 -7 22 -16 25 -20 8 -17 8 -39 -7z"/>
<path d="M232 247 c-6 -7 -9 -51 -7 -107 3 -115 4 -120 23 -112 10 3 13 1 8
-6 -3 -6 -1 -14 5 -18 8 -4 9 -3 5 4 -5 9 6 12 37 12 26 0 49 6 56 14 7 8 21
13 32 11 15 -3 19 2 19 23 -1 26 -1 26 -15 8 -13 -17 -15 -17 -15 -4 0 22 -37
33 -56 17 -8 -6 -17 -9 -21 -5 -3 3 0 6 8 7 8 1 3 5 -11 9 -20 6 -13 8 28 9
l54 1 -4 66 -3 66 -46 4 c-26 3 -60 0 -75 -6 -27 -9 -28 -9 -10 5 11 8 15 15
9 15 -6 0 -15 -6 -21 -13z"/>
</g>
</svg>
